<svg width="34" height="34" viewBox="0 0 34 34" fill="none" xmlns="http://www.w3.org/2000/svg">
<path d="M0 0.404094H2.80044L6.12212 16.2568C8.39364 12.1597 10.3777 8.58699 12.3592 5.01269C12.961 3.92709 13.4618 2.72603 14.181 1.77673C14.7521 1.02467 15.5864 0.580484 16.2993 0L16.6595 0.60133C13.6266 5.61241 10.5425 10.5834 7.59388 15.6634C6.8255 17.0305 6.28772 18.5802 6.01353 20.2175C5.26487 24.6433 4.71552 29.122 4.05501 33.8172L1.74388 33.9952C5.07707 22.4208 4.40507 11.3691 0 0.404094Z" fill="black"/>
<path d="M2.84772 33.9952C8.95195 30.1707 13.9255 24.6 18.4481 18.2596C16.5407 19.7765 14.4225 19.8294 12.2545 19.7028C14.2337 18.6648 16.0299 17.146 17.5398 15.2337C14.3305 17.9902 10.9335 20.0026 6.89889 19.6178C10.4173 18.3606 12.7936 14.9883 15.5608 12.3393C16.6187 11.3274 17.7327 10.415 18.7726 9.48818L16.2712 8.72649L16.3018 8.48275C17.8962 8.48275 19.2926 7.60561 20.7324 6.92892C21.9666 6.35003 23.1969 5.75352 24.5536 5.90265C24.7989 5.92991 25.0417 5.98282 25.3649 6.03895L24.7849 6.90486C25.7903 6.38211 26.645 5.86897 27.5355 5.48893C29.0941 4.82346 30.6873 4.40333 32.3379 4.94212C33.0189 5.16649 33.6102 5.69799 33.9987 6.43502C30.8342 6.05017 28.4822 8.16525 26.1902 10.2835C24.3122 12.0266 22.5862 14.023 20.7899 15.9056C20.6788 16.0226 20.5536 16.1172 20.4335 16.2263L20.5178 16.4267H30.212C25.982 21.8323 21.2856 25.9069 15.7652 28.4357C17.7365 26.4345 19.6593 24.3787 21.1987 21.7954C15.8917 27.7862 9.82964 31.9795 2.84772 33.9952Z" fill="black"/>
</svg>
